<?xml version="1.0" encoding="iso-8859-1"?>
<!-- Generator: Adobe Illustrator 23.0.1, SVG Export Plug-In . SVG Version: 6.00 Build 0)  -->
<svg version="1.1" id="Layer_1" xmlns="http://www.w3.org/2000/svg" xmlns:xlink="http://www.w3.org/1999/xlink" x="0px" y="0px"
	 viewBox="0 0 512 512" style="enable-background:new 0 0 512 512;" xml:space="preserve">
<g>
	<g>
		<path style="fill-rule:evenodd;clip-rule:evenodd;fill:#F58220;" d="M409.309,424.608c22.734-4.601,46.401-9.77,69.121-14.364
			c-9.867,0-21.274,0.194-31.178,0.194c13.652-19.563-0.117-30.062-22.273-38.535C440.985,393.861,437.135,411.717,409.309,424.608
			L409.309,424.608L409.309,424.608z"/>
		<path style="fill:#F58220;" d="M441.506,364.688c10.886,0,20.769,4.487,27.92,11.755c7.15,7.244,11.574,17.251,11.574,28.264
			c-0.007,11.013-4.437,21.013-11.574,28.261c-7.157,7.26-17.034,11.775-27.913,11.775c-10.866,0-20.729-4.514-27.877-11.775
			c-7.164-7.247-11.588-17.248-11.588-28.261c0-11.013,4.424-21.02,11.584-28.264C420.783,369.176,430.65,364.688,441.506,364.688
			L441.506,364.688L441.506,364.688z M441.513,368.668c-9.75,0-18.628,4.046-25.053,10.565
			c-6.435,6.529-10.418,15.544-10.418,25.474c0,9.93,3.983,18.958,10.418,25.474c6.429,6.525,15.303,10.562,25.053,10.562
			c9.79,0,18.658-4.036,25.076-10.562c6.425-6.516,10.431-15.544,10.431-25.474c0-9.93-4.006-18.945-10.431-25.474
			C460.17,372.714,451.302,368.668,441.513,368.668L441.513,368.668L441.513,368.668z"/>
		<polygon style="fill-rule:evenodd;clip-rule:evenodd;fill:#2E3192;" points="36.326,434.104 43.109,434.104 43.109,415.693 
			48.452,415.693 48.452,409.883 31.007,409.883 31,415.693 36.326,415.693 36.326,434.104 36.326,434.104 		"/>
		<path style="fill-rule:evenodd;clip-rule:evenodd;fill:#2E3192;" d="M64.219,434.806c10.111,0,10.649-7.899,10.649-10.492v-14.431
			h-6.786v14.291c0,1.493-0.257,4.815-3.863,4.815c-3.595,0-3.883-3.321-3.883-4.815v-14.291h-6.783v14.431
			C53.554,426.907,54.105,434.806,64.219,434.806L64.219,434.806L64.219,434.806z"/>
		<path style="fill-rule:evenodd;clip-rule:evenodd;fill:#2E3192;" d="M81.935,434.104h6.783v-8.002l5.119,8.002h8.21l-6.783-9.687
			c2.276-0.795,5.075-2.71,5.075-7.271c0-1.106-0.264-7.264-8.373-7.264H81.935V434.104L81.935,434.104L81.935,434.104z
			 M88.718,420.782v-5.576h1.661c2.416,0,3.198,1.423,3.198,2.77c0,1.42-0.782,2.807-3.188,2.807H88.718L88.718,420.782
			L88.718,420.782z"/>
		<polygon style="fill-rule:evenodd;clip-rule:evenodd;fill:#2E3192;" points="107.148,434.104 113.941,434.104 113.941,423.686 
			120.968,434.104 129.455,434.104 119.992,421.618 129.204,409.883 121.232,409.883 113.941,420.054 113.941,409.883 
			107.155,409.883 107.148,434.104 107.148,434.104 		"/>
		<polygon style="fill-rule:evenodd;clip-rule:evenodd;fill:#2E3192;" points="134.31,434.104 141.093,434.104 141.093,409.883 
			134.31,409.883 134.31,434.104 134.31,434.104 		"/>
		<path style="fill-rule:evenodd;clip-rule:evenodd;fill:#2E3192;" d="M163.556,411.58c-0.956-0.698-3.555-2.406-7.374-2.406
			c-5.67,0-8.51,3.405-8.51,7.327c0,4.798,3.281,6.495,5.777,7.227c2.122,0.615,4.631,0.835,4.641,3.221
			c0,1.453-1.139,2.038-2.385,2.038c-2.005,0-4.11-1.39-6.038-3.231l-3.201,5.162c3.498,2.844,5.937,3.886,9.055,3.886
			c5.69,0,9.108-3.154,9.108-7.969c0-2.352-0.404-5.777-5.303-7.471c-2.312-0.836-5.116-0.765-5.116-2.777
			c0-0.859,0.478-2.072,2.539-2.072c1.721,0,3.245,1.109,4.381,2.142L163.556,411.58L163.556,411.58L163.556,411.58z"/>
		<polygon style="fill-rule:evenodd;clip-rule:evenodd;fill:#2E3192;" points="170.727,434.104 177.496,434.104 177.496,424.417 
			185.743,424.417 185.743,434.104 192.518,434.104 192.518,409.883 185.743,409.883 185.729,418.6 177.483,418.6 177.496,409.883 
			170.727,409.883 170.727,434.104 170.727,434.104 		"/>
		<path style="fill-rule:evenodd;clip-rule:evenodd;fill:#2E3192;" d="M213.515,434.104h7.274l1.347-4.19h8.243l1.36,4.19h7.264
			l-8.624-24.221h-8.243L213.515,434.104L213.515,434.104L213.515,434.104z M226.266,415.66l2.773,8.935h-5.54L226.266,415.66
			L226.266,415.66L226.266,415.66z"/>
		<polygon style="fill-rule:evenodd;clip-rule:evenodd;fill:#2E3192;" points="243.868,434.104 250.661,434.104 250.661,409.883 
			243.878,409.883 243.868,434.104 243.868,434.104 		"/>
		<path style="fill-rule:evenodd;clip-rule:evenodd;fill:#2E3192;" d="M257.948,434.104h6.769l0.003-8.002l5.142,8.002h8.193
			l-6.789-9.687c2.299-0.795,5.099-2.71,5.099-7.271c0-1.106-0.264-7.264-8.373-7.264h-10.037L257.948,434.104L257.948,434.104
			L257.948,434.104z M264.717,420.782l0.003-5.576h1.681c2.419,0,3.181,1.423,3.181,2.77c0,1.42-0.762,2.807-3.181,2.807H264.717
			L264.717,420.782L264.717,420.782z"/>
		<polygon style="fill-rule:evenodd;clip-rule:evenodd;fill:#2E3192;" points="283.182,434.104 297.228,434.104 297.218,428.287 
			289.961,428.287 289.961,409.883 283.171,409.883 283.182,434.104 283.182,434.104 		"/>
		<polygon style="fill-rule:evenodd;clip-rule:evenodd;fill:#2E3192;" points="302.822,434.104 309.615,434.104 309.615,409.883 
			302.835,409.883 302.822,434.104 302.822,434.104 		"/>
		<polygon style="fill-rule:evenodd;clip-rule:evenodd;fill:#2E3192;" points="316.909,434.104 323.437,434.104 323.437,419.569 
			332.412,434.104 339.436,434.104 339.442,409.883 332.893,409.883 332.893,424.174 324.039,409.883 316.909,409.883 
			316.909,434.104 316.909,434.104 		"/>
		<polygon style="fill-rule:evenodd;clip-rule:evenodd;fill:#2E3192;" points="346.723,434.104 361.264,434.104 361.264,428.287 
			353.526,428.287 353.526,424.417 360.539,424.417 360.539,419.082 353.526,419.082 353.526,415.693 361.261,415.693 
			361.264,409.883 346.723,409.883 346.723,434.104 346.723,434.104 		"/>
		<path style="fill-rule:evenodd;clip-rule:evenodd;fill:#2E3192;" d="M383.006,411.58c-0.976-0.698-3.589-2.406-7.384-2.406
			c-5.68,0-8.5,3.405-8.5,7.327c0,4.798,3.288,6.495,5.767,7.227c2.102,0.615,4.645,0.835,4.645,3.221
			c0,1.453-1.143,2.038-2.406,2.038c-2.005,0-4.11-1.39-6.007-3.231l-3.228,5.162c3.502,2.844,5.971,3.886,9.075,3.886
			c5.687,0,9.102-3.154,9.102-7.969c0-2.352-0.414-5.777-5.289-7.471c-2.322-0.836-5.129-0.765-5.129-2.777
			c0-0.859,0.488-2.072,2.523-2.072c1.747,0,3.255,1.109,4.414,2.142L383.006,411.58L383.006,411.58L383.006,411.58z"/>
	</g>
	<path style="fill-rule:evenodd;clip-rule:evenodd;fill:#F58220;" d="M123.322,282.422c81.636-16.521,166.62-35.083,248.208-51.58
		c-35.431,0-76.393,0.695-111.956,0.695c49.024-70.25-0.42-107.948-79.981-138.376C237.065,172.014,223.243,236.132,123.322,282.422
		L123.322,282.422L123.322,282.422z"/>
	<path style="fill:#F58220;" d="M238.937,67.257c39.091,0,74.581,16.113,100.258,42.211c25.676,26.011,41.562,61.947,41.562,101.493
		c-0.025,39.547-15.934,75.457-41.562,101.482c-25.7,26.071-61.167,42.282-100.233,42.282c-39.019,0-74.437-16.211-100.102-42.282
		c-25.724-26.024-41.61-61.935-41.61-101.482c0-39.546,15.886-75.482,41.597-101.493C164.524,83.371,199.955,67.257,238.937,67.257
		L238.937,67.257L238.937,67.257z M238.961,81.547c-35.011,0-66.891,14.53-89.964,37.939c-23.109,23.445-37.41,55.816-37.41,91.475
		s14.301,68.078,37.41,91.475c23.085,23.432,54.953,37.926,89.964,37.926c35.154,0,66.998-14.494,90.047-37.926
		c23.072-23.397,37.458-55.816,37.458-91.475s-14.386-68.03-37.458-91.475C305.959,96.077,274.116,81.547,238.961,81.547
		L238.961,81.547L238.961,81.547z"/>
</g>
</svg>
